<?xml version="1.0" encoding="utf-8"?>
<!-- Generator: Adobe Illustrator 15.0.2, SVG Export Plug-In . SVG Version: 6.00 Build 0)  -->
<!DOCTYPE svg PUBLIC "-//W3C//DTD SVG 1.1//EN" "http://www.w3.org/Graphics/SVG/1.1/DTD/svg11.dtd">
<svg version="1.1" id="Layer_1" xmlns="http://www.w3.org/2000/svg" xmlns:xlink="http://www.w3.org/1999/xlink" x="0px" y="0px"
	 width="254px" height="88px" viewBox="0 0 254 88" enable-background="new 0 0 254 88" xml:space="preserve">
<path fill="#EB6E20" d="M227.74,46.284c0.08,1.638,0.165,3.485,0.338,5.162c0.223,2.171,2.078,8.465,2.078,8.465
	c0.547,1.625,2.12,2.686,3.792,2.266l3.004-0.758c1.674-0.423,2.69-2.122,2.269-3.795c0,0-1.12-4.835-1.917-7.589
	c-2.131-7.362-8.113-13.557-12.292-16.365C227.32,37.624,227.525,41.852,227.74,46.284"/>
<path fill="#696A6C" d="M233.572,28.577c-1.525,4.738,0.49,9.823,2.423,13.747c-0.467-8.139,3.161-17.344,7.779-23.873
	C239.117,20.921,235.227,23.434,233.572,28.577"/>
<path fill="#EB6E20" d="M241.955,16.492c1.378-0.89,2.935-1.884,4.304-2.872c1.766-1.281,6.286-6.03,6.286-6.03
	c1.134-1.291,1.267-3.182,0.068-4.421l-2.16-2.22c-1.203-1.238-3.182-1.27-4.419-0.068c0,0-3.631,3.387-5.618,5.454
	c-5.309,5.528-7.68,13.805-8.024,18.828C234.664,21.186,238.222,18.894,241.955,16.492"/>
<path fill="#696A6C" d="M223.704,20.297c4.864-1.05,8.26-5.338,10.694-8.976c-6.817,4.476-16.601,5.936-24.565,5.201
	C214.3,19.321,218.422,21.434,223.704,20.297"/>
<path fill="#EB6E20" d="M209.079,19.01c-1.461-0.748-3.102-1.6-4.639-2.287c-1.992-0.892-8.365-2.433-8.365-2.433
	c-1.686-0.339-3.389,0.491-3.861,2.152l-0.847,2.979c-0.47,1.663,0.491,3.388,2.155,3.862c0,0,4.746,1.45,7.528,2.136
	c7.442,1.834,15.799-0.247,20.319-2.463C216.788,22.978,213.027,21.043,209.079,19.01"/>
<path fill="#696A6C" d="M221.497,32.915c-3.339-3.689-8.751-4.486-13.116-4.774c7.282,3.665,14.205,10.084,16.785,18.674
	C225.358,41.545,225.126,36.919,221.497,32.915"/>
<path fill="#696A6C" d="M180.9,58.891c-0.258-3.085-1.238-5.708-2.95-7.871c-2.788-3.54-6.515-5.309-11.18-5.309
	c-4.533,0-8.148,1.728-10.851,5.183c-2.132,2.716-3.201,5.812-3.201,9.285c0,3.689,1.263,6.993,3.778,9.919
	c2.517,2.927,6.015,4.389,10.474,4.389c2.015,0,3.816-0.306,5.416-0.918c1.595-0.611,3.028-1.505,4.306-2.677
	c1.276-1.177,2.397-2.718,3.373-4.634c0.077-0.149,0.137-0.286,0.198-0.424c0.125-0.446,0.028-0.989-1.335-1.027
	c-1.852-0.054-2.062,0.248-2.588,1.091v-0.001c-0.787,1.178-1.537,2.079-2.241,2.69c-0.923,0.8-2.044,1.443-3.358,1.929
	c-1.32,0.485-2.676,0.728-4.07,0.728c-2.893,0-5.316-1.017-7.279-3.049c-1.965-2.034-2.98-4.635-3.047-7.815h22.917
	C180.005,60.335,180.935,59.972,180.9,58.891z M156.693,57.337c0.725-2.517,1.792-4.405,3.201-5.662
	c1.928-1.728,4.242-2.591,6.928-2.591c1.627,0,3.18,0.341,4.659,1.032c1.474,0.684,2.666,1.592,3.563,2.713
	c0.898,1.126,1.584,2.628,2.055,4.507H156.693z"/>
<path fill="#696A6C" d="M206.384,73.728c1.36,0,1.732-0.363,1.732-1.056V59.699c0-3.723-0.375-6.464-1.133-8.226
	c-0.757-1.761-1.92-3.163-3.508-4.201c-1.586-1.041-3.405-1.562-5.446-1.562c-2.014,0-3.875,0.468-5.586,1.396
	c-1.713,0.932-3.269,2.336-4.682,4.216v-3.771c0-0.764-0.404-1.115-1.616-1.133h-0.177c-1.321,0.019-1.725,0.369-1.725,1.133v25.073
	c0,0.741,0.41,1.108,1.814,1.108c1.411,0,1.703-0.367,1.703-1.108v-8.873c0-3.607,0.172-6.087,0.504-7.446
	c0.538-2.08,1.647-3.825,3.337-5.235c1.68-1.406,3.59-2.111,5.723-2.111c1.862,0,3.375,0.456,4.525,1.371
	c1.159,0.914,1.943,2.276,2.349,4.088c0.265,1.054,0.394,3.159,0.394,6.315v11.973C204.593,73.365,204.975,73.728,206.384,73.728"/>
<path fill="#696A6C" d="M148.313,46.418h-0.45c-1.19,0.054-1.583,0.369-1.583,1.133v3.339c-1.645-1.947-3.035-2.931-4.78-3.832
	c-4.189-2.164-14.245-2.886-20.126,7.821l1.934,3.013c3.124-4.8,6.511-8.928,12.237-8.928c4.745,0,10.91,3.715,10.91,10.911
	c0,3.17-0.984,5.726-2.953,7.666c-1.97,1.946-4.573,2.882-7.812,2.882c-0.505,0-0.852,0.041-1.33-0.007
	c-2.188-0.126-4.007-0.803-5.596-1.84c-1.243-0.805-2.351-1.827-3.371-3.008c-0.674-0.78-1.308-1.628-1.929-2.518
	c-0.599,0.976-1.231,1.99-1.856,2.967c0.381,0.501,0.755,1.001,1.156,1.479c1.271,1.496,2.686,2.843,4.319,3.902
	c2.018,1.308,4.37,2.174,7.206,2.327c0.367,0.028,0.662,0.009,1.04,0.009c2.148,0,4.179-0.399,6.092-1.296
	c1.917-0.898,3.533-2.184,4.86-3.861v3.746c0,3.017-0.353,5.201-1.053,6.557c-0.709,1.353-1.89,2.476-3.545,3.373
	c-1.397,0.754-3.083,1.172-5.015,1.289c-0.605,0.079-1.223,0.335-1.223,1.687c0,1.203,0.427,1.515,1.001,1.57
	c2.906-0.092,5.435-0.741,7.544-2c2.281-1.356,3.882-3.295,4.803-5.808c0.675-1.781,1.01-6.926,1.01-10.769v-20.67
	C149.804,46.787,149.428,46.474,148.313,46.418"/>
<path fill="#EB6E20" d="M98.554,50.554c1.66-0.962,3.466-1.445,5.427-1.445c3.531,0,6.149,1.534,8.243,3.603
	c0.844,0.838,1.625,1.796,2.396,2.812c1.837,2.416,5.219,8.257,5.219,8.257l1.905-3.335c0,0-3.167-5.084-4.563-6.971
	c-0.838-1.13-1.729-2.193-2.698-3.154c-2.689-2.679-6.177-4.609-10.794-4.609c-3.89,0-7.217,1.401-9.987,4.204
	c-2.764,2.801-4.147,6.169-4.147,10.112c0,4.023,1.365,7.437,4.11,10.247c2.744,2.808,6.049,4.214,9.929,4.214
	c0.616,0,1.214-0.032,1.81-0.032v-0.016c3.806-0.239,6.736-1.913,9.153-4.226v2.412c0,0.739,0.216,1.106,1.855,1.106
	c1.339,0,1.774-0.367,1.774-1.106v-6.708h-0.022c0.006-0.012,0.014-0.021,0.022-0.034l-1.963-3.047
	c-2.907,4.215-6.22,7.75-11.025,8.254c-0.476,0.064-0.751,0.025-1.242,0.025c-1.915,0-3.702-0.365-5.364-1.347
	c-1.672-0.977-2.997-2.345-3.986-4.102c-0.989-1.755-1.479-3.6-1.479-5.528c0-1.94,0.484-3.785,1.467-5.528
	C95.575,52.871,96.893,51.518,98.554,50.554"/>
<path fill="#EB6E20" d="M14.449,45.982C6.117,45.982,0,52.236,0,60.204c0,7.961,6.483,14.443,14.449,14.443
	c4.19,0,7.953-1.801,10.598-4.653v2.631c0,0.741,0.361,1.108,1.95,1.108c1.502,0,1.906-0.367,1.906-1.108V60.253
	C28.902,51.861,22.528,45.982,14.449,45.982z M14.449,70.756c-5.819,0-10.556-4.736-10.556-10.552
	c0-5.821,4.736-10.559,10.556-10.559c5.824,0,10.561,4.738,10.561,10.559C25.01,66.02,20.272,70.756,14.449,70.756z"/>
<path fill="#EB6E20" d="M41.943,49.329c0.128-0.038,0.258-0.084,0.389-0.112c0.081-0.021,0.153-0.041,0.262-0.071
	c0.478-0.134,0.844-0.494,0.866-1.63v-0.178c-0.018-1.416-0.493-1.559-1.016-1.474c-0.835,0.17-1.652,0.501-2.444,1.018
	c-1.188,0.782-2.321,1.96-3.396,3.536v-2.865c0-0.764-0.458-1.133-1.78-1.133c-1.148,0-1.817,0.369-1.817,1.133v25.073
	c0,0.741,0.381,1.108,1.821,1.108c1.518,0,1.776-0.367,1.776-1.108v-8.096c0-4.745,0.219-7.899,0.653-9.456
	c0.571-2.03,1.399-3.527,2.493-4.494c0.696-0.614,1.412-1.012,2.141-1.234c0.003-0.003,0.006-0.003,0.009-0.006
	C41.917,49.334,41.928,49.333,41.943,49.329"/>
<path fill="#EB6E20" d="M85.446,73.732c1.113,0,1.778-0.367,1.778-1.108V58.845c0-3.422-0.35-5.989-1.055-7.699
	c-0.702-1.709-1.778-3.04-3.226-4.002c-1.447-0.951-3.115-1.432-5.011-1.432c-2.023,0-3.913,0.562-5.668,1.674
	c-1.758,1.118-3.222,2.749-4.392,4.893c-0.555-1.611-1.211-2.846-1.966-3.709c-0.754-0.864-1.729-1.557-2.922-2.075
	c-1.192-0.521-2.451-0.783-3.776-0.783c-1.969,0-3.838,0.538-5.619,1.611c-1.292,0.802-2.553,2.077-3.775,3.823v-3.594
	c0-0.763-0.29-1.057-1.36-1.133H47.73c-1.18,0.099-1.438,0.37-1.438,1.133v25.073c0,0.741,0.558,1.108,1.766,1.108
	c1.336,0,1.757-0.367,1.757-1.108V62.191c0-3.422,0.338-5.961,1.017-7.623c0.682-1.661,1.73-2.98,3.146-3.96
	c1.415-0.982,2.938-1.476,4.565-1.476c1.411,0,2.625,0.36,3.647,1.072c1.024,0.713,1.743,1.658,2.152,2.843
	c0.409,1.183,0.616,3.422,0.616,6.729v12.848c0,0.741,0.692,1.108,1.811,1.108c1.116,0,1.71-0.367,1.71-1.108V63.07
	c0-3.922,0.326-6.724,0.981-8.402c0.648-1.678,1.681-3.02,3.093-4.026c1.413-1.008,2.97-1.511,4.674-1.511
	c1.406,0,2.613,0.338,3.628,1.008c1.008,0.673,1.725,1.557,2.141,2.655c0.418,1.099,0.627,3.116,0.627,6.05v13.779
	C83.625,73.365,84.203,73.732,85.446,73.732"/>
</svg>
