<?xml version="1.0" encoding="utf-8"?>
<!-- Generator: Adobe Illustrator 15.0.2, SVG Export Plug-In . SVG Version: 6.00 Build 0)  -->
<!DOCTYPE svg PUBLIC "-//W3C//DTD SVG 1.1//EN" "http://www.w3.org/Graphics/SVG/1.1/DTD/svg11.dtd">
<svg version="1.1" id="Layer_1" xmlns="http://www.w3.org/2000/svg" xmlns:xlink="http://www.w3.org/1999/xlink" x="0px" y="0px"
	 width="51px" height="39px" viewBox="0 0 51 39" enable-background="new 0 0 51 39" xml:space="preserve">
<path id="newspaper-3-icon_1_" fill="#EA6E1F" d="M3.371,38.758C1.512,38.758,0,37.246,0,35.387L0.001,3.771H1.84v29.931
	c0,1.276,0.966,2.238,2.248,2.238s2.248-0.962,2.248-2.238V0h43.489l-0.001,35.387c0,1.859-1.513,3.371-3.371,3.371H3.371z
	 M8.086,34.954h39.945V1.791H8.086V34.954z"/>
<path fill="#EA6E1F" d="M27.455,7.045c-5.194,0-9.404,4.209-9.404,9.404c0,5.195,4.21,9.406,9.404,9.406
	c2.641,0,5.025-1.093,6.732-2.846v2.417h2.673v-8.977C36.861,11.254,32.649,7.045,27.455,7.045z M27.455,23.182
	c-3.719,0-6.732-3.014-6.732-6.733c0-3.719,3.014-6.732,6.732-6.732s6.732,3.014,6.732,6.732l0,0v0.006
	C34.186,20.172,31.171,23.182,27.455,23.182z"/>
<rect x="15.396" y="28.865" fill="#EA6E1F" width="24.467" height="2.364"/>
</svg>
